STARTFONT 2.1
COMMENT
COMMENT Converted from OpenType font "Q:\font stuff\winfont\Quarx Outline.ttf" by "otf2bdf 3.0".
COMMENT
FONT -FreeType-Quarx Outline-Medium-R-Normal--40-400-72-72-P-204-ISO10646-1
SIZE 40 72 72
FONTBOUNDINGBOX 40 40 0 -6
STARTPROPERTIES 19
FOUNDRY "FreeType"
FAMILY_NAME "Quarx Outline"
WEIGHT_NAME "Medium"
SLANT "R"
SETWIDTH_NAME "Normal"
ADD_STYLE_NAME ""
PIXEL_SIZE 34
POINT_SIZE 400
RESOLUTION_X 72
RESOLUTION_Y 72
SPACING "P"
AVERAGE_WIDTH 204
CHARSET_REGISTRY "ISO10646"
CHARSET_ENCODING "1"
FONT_ASCENT 33
FONT_DESCENT 6
COPYRIGHT "Copyright by dustBUST Fonts 2001."
_OTF_FONTFILE "Q:\font stuff\winfont\Quarx Outline.ttf"
_OTF_PSNAME "QuarxOutline"
ENDPROPERTIES
CHARS 193
STARTCHAR 0020
ENCODING 32
SWIDTH 550 0
DWIDTH 22 0
BBX 0 0 0 0
BITMAP
ENDCHAR
STARTCHAR 0021
ENCODING 33
SWIDTH 300 0
DWIDTH 12 0
BBX 6 25 3 0
BITMAP
1C
7C
6C
CC
CC
CC
CC
CC
CC
CC
CC
CC
CC
DC
F8
F0
00
00
FC
FC
CC
CC
CC
FC
FC
ENDCHAR
STARTCHAR 0022
ENCODING 34
SWIDTH 550 0
DWIDTH 22 0
BBX 15 10 3 15
BITMAP
FE7E
FE7E
C666
C666
C666
C666
C666
CC6C
FC7C
F078
ENDCHAR
STARTCHAR 0023
ENCODING 35
SWIDTH 550 0
DWIDTH 22 0
BBX 0 0 0 0
BITMAP
ENDCHAR
STARTCHAR 0024
ENCODING 36
SWIDTH 950 0
DWIDTH 38 0
BBX 31 37 1 -6
BITMAP
0001E000
0007E000
000E6000
000C6000
000C6000
000C6000
3FFC7FF0
7FFC7FFC
6000000C
C0000006
C0000006
C7FC7FFE
C7FC7FFE
C60C6000
C60C6000
C60C6000
C7FC7FF8
C000001C
C0000006
60000006
7FFC7FC6
3FFC7FC6
000C6046
000C6046
000C6046
FFFC7FC6
C0000006
C0000006
E000000E
7FFC7FFC
3FFC7FF8
000C6000
000C6000
000C6000
000CC000
000FC000
000F0000
ENDCHAR
STARTCHAR 0025
ENCODING 37
SWIDTH 550 0
DWIDTH 22 0
BBX 0 0 0 0
BITMAP
ENDCHAR
STARTCHAR 0026
ENCODING 38
SWIDTH 925 0
DWIDTH 37 0
BBX 31 25 3 0
BITMAP
1FFFFE00
7FFFFF00
60000380
C0000180
C0000180
C7FFF180
C7FFF180
C6003180
C6003180
C601F1FE
C607F1FE
C6060006
C60C0006
C60C000C
C60FF1FC
C60FF1F8
C6003180
C6003180
C7FFF1F0
C7FFF1FC
C000000C
C0000006
60000006
7FFFFFFE
1FFFFFFE
ENDCHAR
STARTCHAR 0027
ENCODING 39
SWIDTH 300 0
DWIDTH 12 0
BBX 6 10 3 15
BITMAP
FC
FC
CC
CC
CC
CC
CC
D8
F8
F0
ENDCHAR
STARTCHAR 0028
ENCODING 40
SWIDTH 450 0
DWIDTH 18 0
BBX 12 37 3 -6
BITMAP
1FF0
7FF0
6030
C030
C070
C7E0
C7C0
C600
C600
C600
C600
C600
C600
C600
C600
C600
C600
C600
C600
C600
C600
C600
C600
C600
C600
C600
C600
C600
C600
C600
C600
C7C0
C7E0
C070
6030
7FF0
3FF0
ENDCHAR
STARTCHAR 0029
ENCODING 41
SWIDTH 450 0
DWIDTH 18 0
BBX 12 37 3 -6
BITMAP
FFC0
FFE0
C070
C030
6030
7F30
1F30
0330
0330
0330
0330
0330
0330
0330
0330
0330
0330
0330
0330
0330
0330
0330
0330
0330
0330
0330
0330
0330
0330
0330
0330
1F30
7F30
6030
C070
FFE0
FFC0
ENDCHAR
STARTCHAR 002A
ENCODING 42
SWIDTH 550 0
DWIDTH 22 0
BBX 0 0 0 0
BITMAP
ENDCHAR
STARTCHAR 002B
ENCODING 43
SWIDTH 550 0
DWIDTH 22 0
BBX 0 0 0 0
BITMAP
ENDCHAR
STARTCHAR 002C
ENCODING 44
SWIDTH 300 0
DWIDTH 12 0
BBX 6 9 3 -3
BITMAP
FC
FC
CC
CC
CC
CC
DC
F8
F0
ENDCHAR
STARTCHAR 002D
ENCODING 45
SWIDTH 775 0
DWIDTH 31 0
BBX 25 6 3 9
BITMAP
1FFFFF80
7FFFFF80
60000180
C0000380
FFFFFF00
FFFFFE00
ENDCHAR
STARTCHAR 002E
ENCODING 46
SWIDTH 300 0
DWIDTH 12 0
BBX 6 6 3 0
BITMAP
FC
FC
CC
CC
FC
FC
ENDCHAR
STARTCHAR 002F
ENCODING 47
SWIDTH 550 0
DWIDTH 22 0
BBX 12 25 5 0
BITMAP
01E0
01E0
0370
0230
0670
0660
0460
0C60
0CC0
08C0
18C0
1980
3180
3180
3300
7300
6200
6600
E600
C400
CC00
CC00
C800
F800
7800
ENDCHAR
STARTCHAR 0030
ENCODING 48
SWIDTH 925 0
DWIDTH 37 0
BBX 31 25 3 0
BITMAP
1FFFFFF8
7FFFFFFC
6000000E
C0000006
C0000006
C7FFFFC6
C7FFFFC6
C60000C6
C60000C6
C60000C6
C60000C6
C60000C6
C60000C6
C60000C6
C60000C6
C60000C6
C60000C6
C60000C6
C7FFFFC6
C7FFFFC6
C0000006
C0000006
6000000E
7FFFFFFC
1FFFFFF8
ENDCHAR
STARTCHAR 0031
ENCODING 49
SWIDTH 300 0
DWIDTH 12 0
BBX 6 25 3 0
BITMAP
1C
7C
6C
CC
CC
CC
CC
CC
CC
CC
CC
CC
CC
CC
CC
CC
CC
CC
CC
CC
CC
CC
DC
F8
F0
ENDCHAR
STARTCHAR 0032
ENCODING 50
SWIDTH 925 0
DWIDTH 37 0
BBX 31 25 3 0
BITMAP
FFFFFFF0
FFFFFFFC
C000000E
60000006
7FFFFFC6
3FFFFFC6
000000C6
000000C6
000000C6
000000C6
3FFFFFC6
70000006
60000006
C000000E
C7FFFFFC
C7FFFFF8
C6000000
C6000000
C7FFFFF0
C7FFFFFC
C000000C
C0000006
60000006
7FFFFFFE
1FFFFFFE
ENDCHAR
STARTCHAR 0033
ENCODING 51
SWIDTH 925 0
DWIDTH 37 0
BBX 31 25 3 0
BITMAP
1FFFFFF8
7FFFFFFC
6000000E
C0000006
C0000006
FFFFFFC6
FFFFFFC6
000000C6
000000C6
000000C6
FFFFFFC6
FFFFFFC6
C0000006
60000006
7FFFFFC6
3FFFFFC6
000000C6
000000C6
FFFFFFC6
FFFFFFC6
C0000006
C0000006
6000000E
7FFFFFFC
1FFFFFF8
ENDCHAR
STARTCHAR 0034
ENCODING 52
SWIDTH 925 0
DWIDTH 37 0
BBX 31 25 3 0
BITMAP
F000001E
FC00007E
CE000066
C60000C6
C60000C6
C60000C6
C60000C6
C60000C6
C60000C6
C60000C6
C60000C6
C60000C6
C7FFFFC6
C7FFFFC6
C0000006
C0000006
60000006
7FFFFFC6
1FFFFFC6
000000C6
000000C6
000000C6
00000066
0000007E
0000001E
ENDCHAR
STARTCHAR 0035
ENCODING 53
SWIDTH 925 0
DWIDTH 37 0
BBX 31 25 3 0
BITMAP
1FFFFFF0
7FFFFFFC
6000000C
C0000006
C0000006
C7FFFFFE
C7FFFFFE
C6000000
C6000000
C6000000
C7FFFFF8
C000001C
C0000006
60000006
7FFFFFC6
1FFFFFC6
000000C6
000000C6
FFFFFFC6
FFFFFFC6
C0000006
C0000006
6000000E
7FFFFFFC
1FFFFFF8
ENDCHAR
STARTCHAR 0036
ENCODING 54
SWIDTH 925 0
DWIDTH 37 0
BBX 31 25 3 0
BITMAP
1FFFFFFE
7FFFFFFE
60000006
C0000006
C000000C
C7FFFFFC
C7FFFFF8
C6000000
C6000000
C6000000
C7FFFFF8
C7FFFFFC
C000000E
C0000006
C7FFFFC6
C7FFFFC6
C60000C6
C60000C6
C7FFFFC6
C7FFFFC6
C0000006
C0000006
6000000E
7FFFFFFC
1FFFFFF8
ENDCHAR
STARTCHAR 0037
ENCODING 55
SWIDTH 550 0
DWIDTH 22 0
BBX 15 25 3 0
BITMAP
1FF8
7FFC
600E
C006
C006
FFE6
FFE6
0066
0066
0066
0066
0066
0066
0066
0066
0066
0066
0066
0066
0066
0066
0066
0036
003E
001E
ENDCHAR
STARTCHAR 0038
ENCODING 56
SWIDTH 925 0
DWIDTH 37 0
BBX 31 25 3 0
BITMAP
1FFFFFF8
7FFFFFFC
6000000E
C0000006
C0000006
C7FFFFC6
C7FFFFC6
C60000C6
C60000C6
C60000C6
C7FFFFC6
C7FFFFC6
C0000006
C0000006
C7FFFFC6
C7FFFFC6
C60000C6
C60000C6
C7FFFFC6
C7FFFFC6
C0000006
C0000006
6000000E
7FFFFFFC
1FFFFFF8
ENDCHAR
STARTCHAR 0039
ENCODING 57
SWIDTH 925 0
DWIDTH 37 0
BBX 31 25 3 0
BITMAP
1FFFFFF8
7FFFFFFC
6000000E
C0000006
C0000006
C7FFFFC6
C7FFFFC6
C60000C6
C60000C6
C60000C6
C7FFFFC6
C0000006
C0000006
60000006
7FFFFFC6
1FFFFFC6
000000C6
000000C6
1FFFFFC6
7FFFFFC6
60000006
C0000006
C000000E
FFFFFFFC
FFFFFFF8
ENDCHAR
STARTCHAR 003A
ENCODING 58
SWIDTH 300 0
DWIDTH 12 0
BBX 6 15 3 0
BITMAP
FC
FC
CC
CC
FC
FC
00
00
FC
FC
CC
CC
CC
FC
FC
ENDCHAR
STARTCHAR 003B
ENCODING 59
SWIDTH 300 0
DWIDTH 12 0
BBX 6 18 3 -3
BITMAP
FC
FC
CC
CC
FC
FC
00
00
FC
FC
CC
CC
CC
CC
CC
D8
F8
F0
ENDCHAR
STARTCHAR 003C
ENCODING 60
SWIDTH 550 0
DWIDTH 22 0
BBX 0 0 0 0
BITMAP
ENDCHAR
STARTCHAR 003D
ENCODING 61
SWIDTH 775 0
DWIDTH 31 0
BBX 25 19 3 3
BITMAP
1FFFFF80
7FFFFF80
60000180
C0000180
C0000300
FFFFFF00
FFFFFC00
00000000
00000000
00000000
00000000
00000000
FFFFFC00
FFFFFF00
C0000300
C0000180
60000180
7FFFFF80
1FFFFF80
ENDCHAR
STARTCHAR 003E
ENCODING 62
SWIDTH 550 0
DWIDTH 22 0
BBX 0 0 0 0
BITMAP
ENDCHAR
STARTCHAR 003F
ENCODING 63
SWIDTH 925 0
DWIDTH 37 0
BBX 31 25 3 0
BITMAP
FFFFFFF0
FFFFFFFC
C000000E
C0000006
60000006
7FFFFFC6
1FFFFFC6
000000C6
000000C6
000000C6
00FFFFC6
01FFFFC6
01800006
0300000E
03FFFFFC
03FFFFF8
00000000
00000000
00000000
03F80000
03F80000
03180000
03180000
03F80000
03F80000
ENDCHAR
STARTCHAR 0040
ENCODING 64
SWIDTH 550 0
DWIDTH 22 0
BBX 0 0 0 0
BITMAP
ENDCHAR
STARTCHAR 0041
ENCODING 65
SWIDTH 925 0
DWIDTH 37 0
BBX 31 25 3 0
BITMAP
1FFFFFF8
7FFFFFFC
6000000E
C0000006
C0000006
C7FFFFC6
C7FFFFC6
C60000C6
C60000C6
C60000C6
C60000C6
C60000C6
C7FFFFC6
C7FFFFC6
C0000006
C0000006
C0000006
C7FFFFC6
C7FFFFC6
C60000C6
C60000C6
C60000C6
CE000066
FC00007E
F000001E
ENDCHAR
STARTCHAR 0042
ENCODING 66
SWIDTH 925 0
DWIDTH 37 0
BBX 31 31 3 0
BITMAP
F0000000
FC000000
CE000000
C6000000
C6000000
C6000000
C7FFFFF8
C7FFFFFC
C000000E
C0000006
C0000006
C7FFFFC6
C7FFFFC6
C60000C6
C60000C6
C60000C6
C60000C6
C60000C6
C60000C6
C60000C6
C60000C6
C60000C6
C60000C6
C60000C6
C7FFFFC6
C7FFFFC6
C0000006
C0000006
6000000E
7FFFFFFC
1FFFFFF8
ENDCHAR
STARTCHAR 0043
ENCODING 67
SWIDTH 925 0
DWIDTH 37 0
BBX 31 25 3 0
BITMAP
1FFFFFF0
7FFFFFFC
6000000C
C0000006
C0000006
C7FFFFFE
C7FFFFFE
C6000000
C6000000
C6000000
C6000000
C6000000
C6000000
C6000000
C6000000
C6000000
C6000000
C6000000
C7FFFFFE
C7FFFFFE
C0000006
C0000006
6000000C
7FFFFFFC
1FFFFFF0
ENDCHAR
STARTCHAR 0044
ENCODING 68
SWIDTH 925 0
DWIDTH 37 0
BBX 31 31 3 0
BITMAP
0000001E
0000007E
00000066
000000C6
000000C6
000000C6
1FFFFFC6
7FFFFFC6
60000006
C0000006
C0000006
C7FFFFC6
C7FFFFC6
C60000C6
C60000C6
C60000C6
C60000C6
C60000C6
C60000C6
C60000C6
C60000C6
C60000C6
C60000C6
C60000C6
C7FFFFC6
C7FFFFC6
C0000006
C0000006
6000000E
7FFFFFFC
1FFFFFF8
ENDCHAR
STARTCHAR 0045
ENCODING 69
SWIDTH 925 0
DWIDTH 37 0
BBX 31 25 3 0
BITMAP
1FFFFFF0
7FFFFFFC
6000000C
C0000006
C0000006
C7FFFFFE
C7FFFFFE
C6000000
C6000000
C6000000
C7FFFFFE
C0000006
C0000006
C000000E
C7FFFFFC
C7FFFFF8
C6000000
C6000000
C7FFFFFE
C7FFFFFE
C0000006
C0000006
6000000C
7FFFFFFC
1FFFFFF0
ENDCHAR
STARTCHAR 0046
ENCODING 70
SWIDTH 925 0
DWIDTH 37 0
BBX 31 31 3 -6
BITMAP
1FFFFFF0
7FFFFFFC
6000000C
C0000006
C0000006
C7FFFFFE
C7FFFFFE
C6000000
C6000000
C6000000
C6000000
C6000000
C6000000
C6000000
C6000000
C6000000
C6000000
C6000000
C7FFFFFE
C7FFFFFE
C0000006
C0000006
C000000C
C7FFFFFC
C7FFFFF8
C6000000
C6000000
C6000000
CE000000
FC000000
F0000000
ENDCHAR
STARTCHAR 0047
ENCODING 71
SWIDTH 925 0
DWIDTH 37 0
BBX 31 31 3 -6
BITMAP
1FFFFFF8
7FFFFFFC
6000000E
C0000006
C0000006
C7FFFFC6
C7FFFFC6
C60000C6
C60000C6
C60000C6
C60000C6
C60000C6
C60000C6
C60000C6
C60000C6
C60000C6
C60000C6
C60000C6
C7FFFFC6
C7FFFFC6
C0000006
C0000006
60000006
7FFFFFC6
1FFFFFC6
000000C6
000000C6
000000C6
00000066
0000007E
0000001E
ENDCHAR
STARTCHAR 0048
ENCODING 72
SWIDTH 925 0
DWIDTH 37 0
BBX 31 31 3 0
BITMAP
F0000000
FC000000
CE000000
C6000000
C6000000
C6000000
C7FFFFF8
C7FFFFFC
C000000E
C0000006
C0000006
C7FFFFC6
C7FFFFC6
C60000C6
C60000C6
C60000C6
C60000C6
C60000C6
C60000C6
C60000C6
C60000C6
C60000C6
C60000C6
C60000C6
C60000C6
C60000C6
C60000C6
C60000C6
CE000066
FC00007E
F000001E
ENDCHAR
STARTCHAR 0049
ENCODING 73
SWIDTH 300 0
DWIDTH 12 0
BBX 6 25 3 0
BITMAP
F0
F8
DC
CC
CC
CC
CC
CC
CC
CC
CC
CC
CC
CC
CC
CC
CC
CC
CC
CC
CC
CC
6C
7C
1C
ENDCHAR
STARTCHAR 004A
ENCODING 74
SWIDTH 550 0
DWIDTH 22 0
BBX 15 25 3 0
BITMAP
001E
003E
0036
0066
0066
0066
0066
0066
0066
0066
0066
0066
0066
0066
0066
0066
0066
0066
FFE6
FFE6
C006
C006
600E
7FFC
1FF8
ENDCHAR
STARTCHAR 004B
ENCODING 75
SWIDTH 925 0
DWIDTH 37 0
BBX 31 31 3 0
BITMAP
F0000000
FC000000
CE000000
C6000000
C6000000
C6000000
C7FFFFFE
C7FFFFFE
C0000006
C0000006
C000000C
C7FFFFFC
C7FFFFF8
C6000000
C6000000
C7FFFFF8
C7FFFFFC
C000000E
C0000006
C0000006
C7FFFFC6
C7FFFFC6
C60000C6
C60000C6
C60000C6
C60000C6
C60000C6
C60000C6
CE000066
FC00007E
F000001E
ENDCHAR
STARTCHAR 004C
ENCODING 76
SWIDTH 550 0
DWIDTH 22 0
BBX 15 31 3 0
BITMAP
F000
FC00
CE00
C600
C600
C600
C600
C600
C600
C600
C600
C600
C600
C600
C600
C600
C600
C600
C600
C600
C600
C600
C600
C600
C7FE
C7FE
C006
C006
600C
7FFC
1FF8
ENDCHAR
STARTCHAR 004D
ENCODING 77
SWIDTH 1075 0
DWIDTH 43 0
BBX 37 25 3 0
BITMAP
1FFFFFFFE0
7FFFFFFFF0
6000000038
C000000018
C000000018
C7FF8FFF18
C7FF8FFF18
C6018C0318
C6018C0318
C6018C0318
C6018C0318
C6018C0318
C6018C0318
C6018C0318
C6018C0318
C6018C0318
C6018C0318
C6018C0318
C6018C0318
C6018C0318
C6018C0318
C6018C0318
CE019C0198
FC01F801F8
F001E00078
ENDCHAR
STARTCHAR 004E
ENCODING 78
SWIDTH 925 0
DWIDTH 37 0
BBX 31 25 3 0
BITMAP
1FFFFFF8
7FFFFFFC
6000000E
C0000006
C0000006
C7FFFFC6
C7FFFFC6
C60000C6
C60000C6
C60000C6
C60000C6
C60000C6
C60000C6
C60000C6
C60000C6
C60000C6
C60000C6
C60000C6
C60000C6
C60000C6
C60000C6
C60000C6
CE000066
FC00007E
F000001E
ENDCHAR
STARTCHAR 004F
ENCODING 79
SWIDTH 925 0
DWIDTH 37 0
BBX 31 25 3 0
BITMAP
1FFFFFF8
7FFFFFFC
6000000E
C0000006
C0000006
C7FFFFC6
C7FFFFC6
C60000C6
C60000C6
C60000C6
C60000C6
C60000C6
C60000C6
C60000C6
C60000C6
C60000C6
C60000C6
C60000C6
C7FFFFC6
C7FFFFC6
C0000006
C0000006
6000000E
7FFFFFFC
1FFFFFF8
ENDCHAR
STARTCHAR 0050
ENCODING 80
SWIDTH 925 0
DWIDTH 37 0
BBX 31 31 3 -6
BITMAP
1FFFFFF8
7FFFFFFC
6000000E
C0000006
C0000006
C7FFFFC6
C7FFFFC6
C60000C6
C60000C6
C60000C6
C60000C6
C60000C6
C60000C6
C60000C6
C60000C6
C60000C6
C60000C6
C60000C6
C7FFFFC6
C7FFFFC6
C0000006
C0000006
C000000E
C7FFFFFC
C7FFFFF8
C6000000
C6000000
C6000000
CE000000
FC000000
F0000000
ENDCHAR
STARTCHAR 0051
ENCODING 81
SWIDTH 925 0
DWIDTH 37 0
BBX 31 31 3 -6
BITMAP
1FFFFFF8
7FFFFFFC
6000000E
C0000006
C0000006
C7FFFFC6
C7FFFFC6
C60000C6
C60000C6
C60000C6
C60000C6
C60000C6
C60000C6
C603C0C6
C607C0C6
C60EC0C6
C60CC0C6
C60CC0C6
C7FCFFC6
C7FCFFC6
C0000006
C0000006
6000000E
7FFCFFFC
1FFCFFF0
000CC000
000CC000
000CC000
000DC000
000F8000
000F0000
ENDCHAR
STARTCHAR 0052
ENCODING 82
SWIDTH 925 0
DWIDTH 37 0
BBX 31 31 3 -6
BITMAP
1FFFFFF8
7FFFFFFC
6000000E
C0000006
C0000006
C0000006
C7FFFFC6
C60000C6
C60000C6
C60000C6
C60000C6
C60000C6
C60000C6
C7FFFFC6
C7FFFFC6
C0000006
C000000C
C7FFF3FC
C7FFF3F0
C6003300
C6003300
C6003300
CE003300
FC003300
F0003300
000033F0
000033FC
0000300E
00001806
00001FFE
000007FE
ENDCHAR
STARTCHAR 0053
ENCODING 83
SWIDTH 925 0
DWIDTH 37 0
BBX 31 25 3 0
BITMAP
1FFFFFF0
7FFFFFFC
6000000C
C0000006
C0000006
C7FFFFFE
C7FFFFFE
C6000000
C6000000
C6000000
C7FFFFF8
C000001C
C0000006
60000006
7FFFFFC6
1FFFFFC6
000000C6
000000C6
FFFFFFC6
FFFFFFC6
C0000006
C0000006
6000000E
7FFFFFFC
1FFFFFF8
ENDCHAR
STARTCHAR 0054
ENCODING 84
SWIDTH 925 0
DWIDTH 37 0
BBX 31 25 3 0
BITMAP
1FFFFFFE
7FFFFFFE
60000006
C0000006
C000000C
FFFCFFFC
FFFCFFF0
000CC000
000CC000
000CC000
000CC000
000CC000
000CC000
000CC000
000CC000
000CC000
000CC000
000CC000
000CC000
000CC000
000CC000
000CC000
000DC000
000F8000
000F0000
ENDCHAR
STARTCHAR 0055
ENCODING 85
SWIDTH 925 0
DWIDTH 37 0
BBX 31 25 3 0
BITMAP
F000001E
FC00007E
CE000066
C60000C6
C60000C6
C60000C6
C60000C6
C60000C6
C60000C6
C60000C6
C60000C6
C60000C6
C60000C6
C60000C6
C60000C6
C60000C6
C60000C6
C60000C6
C7FFFFC6
C7FFFFC6
C0000006
C0000006
6000000E
7FFFFFFC
1FFFFFF8
ENDCHAR
STARTCHAR 0056
ENCODING 86
SWIDTH 925 0
DWIDTH 37 0
BBX 31 25 3 0
BITMAP
FFC007FE
FFF01FFE
C0381806
C0183006
6018300C
7F1831FC
1F1831F8
03183180
03183180
03183180
03183180
03183180
03183180
03183180
03183180
03183180
03183180
03183180
031FF180
031FF180
03000180
03000180
01800380
01FFFF00
007FFE00
ENDCHAR
STARTCHAR 0057
ENCODING 87
SWIDTH 1075 0
DWIDTH 43 0
BBX 37 25 3 0
BITMAP
F001E00078
FC01F801F8
CE019C0198
C6018C0318
C6018C0318
C6018C0318
C6018C0318
C6018C0318
C6018C0318
C6018C0318
C6018C0318
C6018C0318
C6018C0318
C6018C0318
C6018C0318
C6018C0318
C6018C0318
C6018C0318
C7FF8FFF18
C7FF8FFF18
C000000018
C000000018
6000000038
7FFFFFFFF0
1FFFFFFFE0
ENDCHAR
STARTCHAR 0058
ENCODING 88
SWIDTH 925 0
DWIDTH 37 0
BBX 31 25 3 0
BITMAP
FFC007FE
FFF01FFE
C0381806
C0183006
6018300C
7F1831FC
1F1831F8
03183180
03183180
03183180
03183180
03183180
1F1FF1F8
7F1FF1FC
6000000C
C0000006
C0000006
C7FFFFE6
C7FFFFE6
C4000066
C4000066
CC000066
CC000036
F800003E
F000001E
ENDCHAR
STARTCHAR 0059
ENCODING 89
SWIDTH 925 0
DWIDTH 37 0
BBX 31 31 3 -6
BITMAP
F000001E
FC00007E
CE000066
C60000C6
C60000C6
C60000C6
C60000C6
C60000C6
C60000C6
C60000C6
C60000C6
C60000C6
C60000C6
C60000C6
C60000C6
C60000C6
C60000C6
C60000C6
C7FFFFC6
C7FFFFC6
C0000006
C0000006
60000006
7FFFFFC6
1FFFFFC6
000000C6
000000C6
000000C6
00000066
0000007E
0000001E
ENDCHAR
STARTCHAR 005A
ENCODING 90
SWIDTH 925 0
DWIDTH 37 0
BBX 31 25 3 0
BITMAP
FFFFFFF0
FFFFFFFC
C000000E
C0000006
60000006
7FFFFFC6
1FFFFFC6
000000C6
000000C6
000000C6
3FFFFFC6
70000006
60000006
C000000E
C7FFFFFC
C7FFFFF8
C6000000
C6000000
C7FFFFF0
C7FFFFFC
C000000C
C0000006
60000006
7FFFFFFE
1FFFFFFE
ENDCHAR
STARTCHAR 005B
ENCODING 91
SWIDTH 450 0
DWIDTH 18 0
BBX 12 37 3 -6
BITMAP
FFF0
FFF0
C030
C030
C070
C7E0
C7C0
C600
C600
C600
C600
C600
C600
C600
C600
C600
C600
C600
C600
C600
C600
C600
C600
C600
C600
C600
C600
C600
C600
C600
C600
C7C0
C7E0
C070
C030
FFF0
FFF0
ENDCHAR
STARTCHAR 005C
ENCODING 92
SWIDTH 550 0
DWIDTH 22 0
BBX 12 25 5 0
BITMAP
7000
F800
C800
CC00
CC00
C400
E600
6600
6200
6300
3300
3180
3180
1980
18C0
08C0
0CC0
0C60
0460
0660
0620
0230
0370
01E0
01E0
ENDCHAR
STARTCHAR 005D
ENCODING 93
SWIDTH 450 0
DWIDTH 18 0
BBX 12 37 3 -6
BITMAP
FFF0
FFF0
C030
C030
6030
7F30
1F30
0330
0330
0330
0330
0330
0330
0330
0330
0330
0330
0330
0330
0330
0330
0330
0330
0330
0330
0330
0330
0330
0330
0330
0330
1F30
7F30
6030
C030
FFF0
FFF0
ENDCHAR
STARTCHAR 005E
ENCODING 94
SWIDTH 550 0
DWIDTH 22 0
BBX 0 0 0 0
BITMAP
ENDCHAR
STARTCHAR 005F
ENCODING 95
SWIDTH 775 0
DWIDTH 31 0
BBX 25 6 3 0
BITMAP
FFFFFE00
FFFFFF00
C0000380
60000180
7FFFFF80
1FFFFF80
ENDCHAR
STARTCHAR 0060
ENCODING 96
SWIDTH 300 0
DWIDTH 12 0
BBX 6 10 3 15
BITMAP
FC
FC
CC
CC
CC
CC
CC
6C
7C
1C
ENDCHAR
STARTCHAR 0061
ENCODING 97
SWIDTH 925 0
DWIDTH 37 0
BBX 31 25 3 0
BITMAP
1FFFFFFE
7FFFFFFE
60000006
C0000006
C0000006
C7FFFFC6
C7FFFFC6
C60000C6
C60000C6
C60000C6
C60000C6
C60000C6
C60000C6
C60000C6
C60000C6
C60000C6
C60000C6
C60000C6
C7FFFFC6
C7FFFFC6
C0000006
C0000006
60000006
7FFFFFFE
1FFFFFFE
ENDCHAR
STARTCHAR 0062
ENCODING 98
SWIDTH 925 0
DWIDTH 37 0
BBX 31 31 3 0
BITMAP
F0000000
FC000000
CE000000
C6000000
C6000000
C6000000
C7FFFFF8
C7FFFFFC
C000000E
C0000006
C0000006
C7FFFFC6
C7FFFFC6
C60000C6
C60000C6
C60000C6
C60000C6
C60000C6
C60000C6
C60000C6
C60000C6
C60000C6
C60000C6
C60000C6
C7FFFFC6
C7FFFFC6
C0000006
C0000006
6000000E
7FFFFFFC
1FFFFFF8
ENDCHAR
STARTCHAR 0063
ENCODING 99
SWIDTH 925 0
DWIDTH 37 0
BBX 31 25 3 0
BITMAP
1FFFFFF0
7FFFFFFC
6000000C
C0000006
C0000006
C7FFFFFE
C7FFFFFE
C6000000
C6000000
C6000000
C6000000
C6000000
C6000000
C6000000
C6000000
C6000000
C6000000
C6000000
C7FFFFFE
C7FFFFFE
C0000006
C0000006
6000000C
7FFFFFFC
1FFFFFF0
ENDCHAR
STARTCHAR 0064
ENCODING 100
SWIDTH 925 0
DWIDTH 37 0
BBX 31 31 3 0
BITMAP
0000001E
0000007E
00000066
000000C6
000000C6
000000C6
1FFFFFC6
7FFFFFC6
60000006
C0000006
C0000006
C7FFFFC6
C7FFFFC6
C60000C6
C60000C6
C60000C6
C60000C6
C60000C6
C60000C6
C60000C6
C60000C6
C60000C6
C60000C6
C60000C6
C7FFFFC6
C7FFFFC6
C0000006
C0000006
6000000E
7FFFFFFC
1FFFFFF8
ENDCHAR
STARTCHAR 0065
ENCODING 101
SWIDTH 925 0
DWIDTH 37 0
BBX 31 25 3 0
BITMAP
1FFFFFF0
7FFFFFFC
6000000E
C0000006
C0000006
C7FFFFC6
C7FFFFC6
C60000C6
C60000C6
C60000C6
C7FFFFC6
C0000006
C0000006
C0000006
C7FFFFFE
C7FFFFFE
C6000000
C6000000
C7FFFFFE
C7FFFFFE
C0000006
C0000006
6000000C
7FFFFFFC
1FFFFFF0
ENDCHAR
STARTCHAR 0066
ENCODING 102
SWIDTH 925 0
DWIDTH 37 0
BBX 31 31 3 -6
BITMAP
1FFFFFF0
7FFFFFFC
6000000C
C0000006
C0000006
C7FFFFFE
C7FFFFFE
C6000000
C6000000
C6000000
C6000000
C6000000
C6000000
C6000000
C6000000
C6000000
C6000000
C6000000
C7FFFFFE
C7FFFFFE
C0000006
C0000006
C000000C
C7FFFFFC
C7FFFFF8
C6000000
C6000000
C6000000
CE000000
FC000000
F0000000
ENDCHAR
STARTCHAR 0067
ENCODING 103
SWIDTH 925 0
DWIDTH 37 0
BBX 31 31 3 -6
BITMAP
1FFFFFF8
7FFFFFFC
6000000E
C0000006
C0000006
C7FFFFC6
C7FFFFC6
C60000C6
C60000C6
C60000C6
C60000C6
C60000C6
C60000C6
C60000C6
C60000C6
C60000C6
C60000C6
C60000C6
C7FFFFC6
C7FFFFC6
C0000006
C0000006
60000006
7FFFFFC6
1FFFFFC6
000000C6
000000C6
000000C6
00000066
0000007E
0000001E
ENDCHAR
STARTCHAR 0068
ENCODING 104
SWIDTH 925 0
DWIDTH 37 0
BBX 31 31 3 0
BITMAP
F0000000
FC000000
CE000000
C6000000
C6000000
C6000000
C7FFFFF8
C7FFFFFC
C000000E
C0000006
C0000006
C7FFFFC6
C7FFFFC6
C60000C6
C60000C6
C60000C6
C60000C6
C60000C6
C60000C6
C60000C6
C60000C6
C60000C6
C60000C6
C60000C6
C60000C6
C60000C6
C60000C6
C60000C6
CE000066
FC00007E
F000001E
ENDCHAR
STARTCHAR 0069
ENCODING 105
SWIDTH 300 0
DWIDTH 12 0
BBX 6 25 3 0
BITMAP
FC
FC
CC
CC
CC
FC
FC
00
00
00
F0
F8
DC
CC
CC
CC
CC
CC
CC
CC
CC
CC
6C
7C
3C
ENDCHAR
STARTCHAR 006A
ENCODING 106
SWIDTH 550 0
DWIDTH 22 0
BBX 15 25 3 0
BITMAP
001E
003E
0036
0066
0066
0066
0066
0066
0066
0066
0066
0066
0066
0066
0066
0066
0066
0066
FFE6
FFE6
C006
C006
600E
7FFC
1FF8
ENDCHAR
STARTCHAR 006B
ENCODING 107
SWIDTH 925 0
DWIDTH 37 0
BBX 31 31 3 0
BITMAP
F0000000
FC000000
CE000000
C6000000
C6000000
C6000000
C7FFFFFE
C7FFFFFE
C0000006
C0000006
C000000C
C7FFFFFC
C7FFFFF8
C6000000
C6000000
C7FFFFF8
C7FFFFFC
C000000E
C0000006
C0000006
C7FFFFC6
C7FFFFC6
C60000C6
C60000C6
C60000C6
C60000C6
C60000C6
C60000C6
CE000066
FC00007E
F000001E
ENDCHAR
STARTCHAR 006C
ENCODING 108
SWIDTH 550 0
DWIDTH 22 0
BBX 15 25 3 0
BITMAP
F000
FC00
CE00
C600
C600
C600
C600
C600
C600
C600
C600
C600
C600
C600
C600
C600
C600
C600
C7FE
C7FE
C006
C006
600C
7FFC
1FF8
ENDCHAR
STARTCHAR 006D
ENCODING 109
SWIDTH 1075 0
DWIDTH 43 0
BBX 37 25 3 0
BITMAP
1FFFFFFFE0
7FFFFFFFF0
6000000038
C000000018
C000000018
C7FF8FFF18
C7FF8FFF18
C6018C0318
C6018C0318
C6018C0318
C6018C0318
C6018C0318
C6018C0318
C6018C0318
C6018C0318
C6018C0318
C6018C0318
C6018C0318
C6018C0318
C6018C0318
C6018C0318
C6018C0318
CE019C0198
FC01F801F8
F001E00078
ENDCHAR
STARTCHAR 006E
ENCODING 110
SWIDTH 925 0
DWIDTH 37 0
BBX 31 25 3 0
BITMAP
1FFFFFF8
7FFFFFFC
6000000E
C0000006
C0000006
C7FFFFC6
C7FFFFC6
C60000C6
C60000C6
C60000C6
C60000C6
C60000C6
C60000C6
C60000C6
C60000C6
C60000C6
C60000C6
C60000C6
C60000C6
C60000C6
C60000C6
C60000C6
CE000066
FC00007E
F000001E
ENDCHAR
STARTCHAR 006F
ENCODING 111
SWIDTH 925 0
DWIDTH 37 0
BBX 31 25 3 0
BITMAP
1FFFFFF8
7FFFFFFC
6000000E
C0000006
C0000006
C7FFFFC6
C7FFFFC6
C60000C6
C60000C6
C60000C6
C60000C6
C60000C6
C60000C6
C60000C6
C60000C6
C60000C6
C60000C6
C60000C6
C7FFFFC6
C7FFFFC6
C0000006
C0000006
6000000E
7FFFFFFC
1FFFFFF8
ENDCHAR
STARTCHAR 0070
ENCODING 112
SWIDTH 925 0
DWIDTH 37 0
BBX 31 31 3 -6
BITMAP
1FFFFFF8
7FFFFFFC
6000000E
C0000006
C0000006
C7FFFFC6
C7FFFFC6
C60000C6
C60000C6
C60000C6
C60000C6
C60000C6
C60000C6
C60000C6
C60000C6
C60000C6
C60000C6
C60000C6
C7FFFFC6
C7FFFFC6
C0000006
C0000006
C000000E
C7FFFFFC
C7FFFFF8
C6000000
C6000000
C6000000
CE000000
FC000000
F0000000
ENDCHAR
STARTCHAR 0071
ENCODING 113
SWIDTH 925 0
DWIDTH 37 0
BBX 31 31 3 -6
BITMAP
1FFFFFF8
7FFFFFFC
6000000E
C0000006
C0000006
C7FFFFC6
C7FFFFC6
C60000C6
C60000C6
C60000C6
C60000C6
C60000C6
C60000C6
C603C0C6
C607C0C6
C60EC0C6
C60CC0C6
C60CC0C6
C7FCFFC6
C7FCFFC6
C0000006
C0000006
6000000E
7FFCFFFC
1FFCFFF0
000CC000
000CC000
000CC000
000DC000
000F8000
000F0000
ENDCHAR
STARTCHAR 0072
ENCODING 114
SWIDTH 550 0
DWIDTH 22 0
BBX 15 25 3 0
BITMAP
1FF0
7FFC
600C
C006
C006
C7FE
C7FE
C600
C600
C600
C600
C600
C600
C600
C600
C600
C600
C600
C600
C600
C600
C600
CE00
FC00
F000
ENDCHAR
STARTCHAR 0073
ENCODING 115
SWIDTH 925 0
DWIDTH 37 0
BBX 31 25 3 0
BITMAP
1FFFFFF0
7FFFFFFC
6000000C
C0000006
C0000006
C7FFFFFE
C7FFFFFE
C6000000
C6000000
C6000000
C7FFFFF8
C000001C
C0000006
60000006
7FFFFFC6
1FFFFFC6
000000C6
000000C6
FFFFFFC6
FFFFFFC6
C0000006
C0000006
6000000E
7FFFFFFC
1FFFFFF8
ENDCHAR
STARTCHAR 0074
ENCODING 116
SWIDTH 550 0
DWIDTH 22 0
BBX 15 31 3 0
BITMAP
F000
FC00
CE00
C600
C600
C600
C7FE
C7FE
C006
C006
C00E
C7FC
C7F8
C600
C600
C600
C600
C600
C600
C600
C600
C600
C600
C600
C7FE
C7FE
C006
C006
600C
7FFC
1FF8
ENDCHAR
STARTCHAR 0075
ENCODING 117
SWIDTH 925 0
DWIDTH 37 0
BBX 31 25 3 0
BITMAP
F000001E
FC00007E
CE000066
C60000C6
C60000C6
C60000C6
C60000C6
C60000C6
C60000C6
C60000C6
C60000C6
C60000C6
C60000C6
C60000C6
C60000C6
C60000C6
C60000C6
C60000C6
C7FFFFC6
C7FFFFC6
C0000006
C0000006
6000000E
7FFFFFFC
1FFFFFF8
ENDCHAR
STARTCHAR 0076
ENCODING 118
SWIDTH 925 0
DWIDTH 37 0
BBX 31 25 3 0
BITMAP
FFC007FE
FFF01FFE
C0381806
C0183006
6018300C
7F1831FC
1F1831F8
03183180
03183180
03183180
03183180
03183180
03183180
03183180
03183180
03183180
03183180
03183180
031FF180
031FF180
03000180
03000180
01800380
01FFFF00
007FFE00
ENDCHAR
STARTCHAR 0077
ENCODING 119
SWIDTH 1075 0
DWIDTH 43 0
BBX 37 25 3 0
BITMAP
F001E00078
FC01F801F8
CE019C0198
C6018C0318
C6018C0318
C6018C0318
C6018C0318
C6018C0318
C6018C0318
C6018C0318
C6018C0318
C6018C0318
C6018C0318
C6018C0318
C6018C0318
C6018C0318
C6018C0318
C6018C0318
C7FF8FFF18
C7FF8FFF18
C000000018
C000000018
6000000038
7FFFFFFFF0
1FFFFFFFE0
ENDCHAR
STARTCHAR 0078
ENCODING 120
SWIDTH 925 0
DWIDTH 37 0
BBX 31 25 3 0
BITMAP
FFC007FE
FFF01FFE
C0381806
C0183006
6018300C
7F1831FC
1F1831F8
03183180
03183180
03183180
03183180
03183180
1F1FF1F8
7F1FF1FC
6000000C
C0000006
C0000006
C7FFFFE6
C7FFFFE6
C4000066
C4000066
CC000066
CC000036
F800003E
F000001E
ENDCHAR
STARTCHAR 0079
ENCODING 121
SWIDTH 925 0
DWIDTH 37 0
BBX 31 31 3 -6
BITMAP
F000001E
FC00007E
CE000066
C60000C6
C60000C6
C60000C6
C60000C6
C60000C6
C60000C6
C60000C6
C60000C6
C60000C6
C60000C6
C60000C6
C60000C6
C60000C6
C60000C6
C60000C6
C7FFFFC6
C7FFFFC6
C0000006
C0000006
60000006
7FFFFFC6
1FFFFFC6
000000C6
000000C6
000000C6
00000066
0000007E
0000001E
ENDCHAR
STARTCHAR 007A
ENCODING 122
SWIDTH 925 0
DWIDTH 37 0
BBX 31 25 3 0
BITMAP
FFFFFFF0
FFFFFFFC
C000000E
C0000006
60000006
7FFFFFC6
1FFFFFC6
000000C6
000000C6
000000C6
3FFFFFC6
70000006
60000006
C000000E
C7FFFFFC
C7FFFFF8
C6000000
C6000000
C7FFFFF0
C7FFFFFC
C000000C
C0000006
60000006
7FFFFFFE
1FFFFFFE
ENDCHAR
STARTCHAR 007B
ENCODING 123
SWIDTH 575 0
DWIDTH 23 0
BBX 16 37 3 -6
BITMAP
03FF
07FF
0C03
1802
1804
18F8
18C0
18C0
18C0
18C0
18C0
18C0
18C0
18C0
18C0
18C0
18C0
3080
E180
2180
10C0
18C0
18C0
18C0
18C0
18C0
18C0
18C0
18C0
18C0
18C0
18F8
18FC
1806
0803
0403
03FF
ENDCHAR
STARTCHAR 007C
ENCODING 124
SWIDTH 300 0
DWIDTH 12 0
BBX 6 40 3 -6
BITMAP
F0
F8
DC
CC
CC
CC
CC
CC
CC
CC
CC
CC
CC
CC
CC
CC
CC
CC
CC
CC
CC
CC
CC
CC
CC
CC
CC
CC
CC
CC
CC
CC
CC
CC
CC
CC
CC
6C
7C
3C
ENDCHAR
STARTCHAR 007D
ENCODING 125
SWIDTH 575 0
DWIDTH 23 0
BBX 16 37 3 -6
BITMAP
FFC0
FFE0
C070
C030
6030
7F30
1F30
0330
0330
0330
0330
0330
0330
0330
0330
0330
0318
030C
0103
010C
0318
0330
0330
0330
0330
0330
0330
0330
0330
0330
0330
3F30
7F30
E030
C070
FFE0
FFC0
ENDCHAR
STARTCHAR 007E
ENCODING 126
SWIDTH 550 0
DWIDTH 22 0
BBX 0 0 0 0
BITMAP
ENDCHAR
STARTCHAR 00A1
ENCODING 161
SWIDTH 550 0
DWIDTH 22 0
BBX 0 0 0 0
BITMAP
ENDCHAR
STARTCHAR 00A2
ENCODING 162
SWIDTH 925 0
DWIDTH 37 0
BBX 31 37 3 -6
BITMAP
00003C00
00007C00
0000EC00
0001CC00
00018C00
00018C00
1FFF8FF8
7FFF8FFC
7000000E
E0000006
C0000006
C7FF8FFE
C7FF8FFE
C6018C00
C6018C00
C6018C00
C6018C00
C6018C00
C6018C00
C6018C00
C6018C00
C6018C00
C6018C00
C6018C00
C7FF8FFE
C7FF8FFE
C0000006
E0000006
7000000E
7FFF8FFC
1FFF8FF8
00018C00
00018C00
00018C00
00019C00
0001F800
0001E000
ENDCHAR
STARTCHAR 00A3
ENCODING 163
SWIDTH 925 0
DWIDTH 37 0
BBX 31 25 3 0
BITMAP
00FFFC00
01FFFE00
03800300
03000380
03000180
031FFF80
031FFF80
03180000
03180000
03180000
031FC000
0300C000
0300C000
03018000
031F8000
031F0000
03180000
03180000
3F1FFFFE
7F1FFFFE
E0000006
C000000E
C000000C
FFFFFFFC
FFFFFFF0
ENDCHAR
STARTCHAR 00A4
ENCODING 164
SWIDTH 550 0
DWIDTH 22 0
BBX 0 0 0 0
BITMAP
ENDCHAR
STARTCHAR 00A5
ENCODING 165
SWIDTH 550 0
DWIDTH 22 0
BBX 0 0 0 0
BITMAP
ENDCHAR
STARTCHAR 00A6
ENCODING 166
SWIDTH 550 0
DWIDTH 22 0
BBX 0 0 0 0
BITMAP
ENDCHAR
STARTCHAR 00A7
ENCODING 167
SWIDTH 550 0
DWIDTH 22 0
BBX 0 0 0 0
BITMAP
ENDCHAR
STARTCHAR 00A8
ENCODING 168
SWIDTH 550 0
DWIDTH 22 0
BBX 0 0 0 0
BITMAP
ENDCHAR
STARTCHAR 00A9
ENCODING 169
SWIDTH 550 0
DWIDTH 22 0
BBX 0 0 0 0
BITMAP
ENDCHAR
STARTCHAR 00AA
ENCODING 170
SWIDTH 550 0
DWIDTH 22 0
BBX 0 0 0 0
BITMAP
ENDCHAR
STARTCHAR 00AB
ENCODING 171
SWIDTH 550 0
DWIDTH 22 0
BBX 0 0 0 0
BITMAP
ENDCHAR
STARTCHAR 00AC
ENCODING 172
SWIDTH 550 0
DWIDTH 22 0
BBX 0 0 0 0
BITMAP
ENDCHAR
STARTCHAR 00AE
ENCODING 174
SWIDTH 550 0
DWIDTH 22 0
BBX 0 0 0 0
BITMAP
ENDCHAR
STARTCHAR 00AF
ENCODING 175
SWIDTH 550 0
DWIDTH 22 0
BBX 0 0 0 0
BITMAP
ENDCHAR
STARTCHAR 00B0
ENCODING 176
SWIDTH 550 0
DWIDTH 22 0
BBX 0 0 0 0
BITMAP
ENDCHAR
STARTCHAR 00B1
ENCODING 177
SWIDTH 550 0
DWIDTH 22 0
BBX 0 0 0 0
BITMAP
ENDCHAR
STARTCHAR 00B2
ENCODING 178
SWIDTH 550 0
DWIDTH 22 0
BBX 0 0 0 0
BITMAP
ENDCHAR
STARTCHAR 00B3
ENCODING 179
SWIDTH 550 0
DWIDTH 22 0
BBX 0 0 0 0
BITMAP
ENDCHAR
STARTCHAR 00B4
ENCODING 180
SWIDTH 550 0
DWIDTH 22 0
BBX 0 0 0 0
BITMAP
ENDCHAR
STARTCHAR 00B5
ENCODING 181
SWIDTH 550 0
DWIDTH 22 0
BBX 0 0 0 0
BITMAP
ENDCHAR
STARTCHAR 00B6
ENCODING 182
SWIDTH 550 0
DWIDTH 22 0
BBX 0 0 0 0
BITMAP
ENDCHAR
STARTCHAR 00B7
ENCODING 183
SWIDTH 550 0
DWIDTH 22 0
BBX 0 0 0 0
BITMAP
ENDCHAR
STARTCHAR 00B8
ENCODING 184
SWIDTH 550 0
DWIDTH 22 0
BBX 0 0 0 0
BITMAP
ENDCHAR
STARTCHAR 00B9
ENCODING 185
SWIDTH 550 0
DWIDTH 22 0
BBX 0 0 0 0
BITMAP
ENDCHAR
STARTCHAR 00BA
ENCODING 186
SWIDTH 550 0
DWIDTH 22 0
BBX 0 0 0 0
BITMAP
ENDCHAR
STARTCHAR 00BB
ENCODING 187
SWIDTH 550 0
DWIDTH 22 0
BBX 0 0 0 0
BITMAP
ENDCHAR
STARTCHAR 00BC
ENCODING 188
SWIDTH 550 0
DWIDTH 22 0
BBX 0 0 0 0
BITMAP
ENDCHAR
STARTCHAR 00BD
ENCODING 189
SWIDTH 550 0
DWIDTH 22 0
BBX 0 0 0 0
BITMAP
ENDCHAR
STARTCHAR 00BE
ENCODING 190
SWIDTH 550 0
DWIDTH 22 0
BBX 0 0 0 0
BITMAP
ENDCHAR
STARTCHAR 00BF
ENCODING 191
SWIDTH 925 0
DWIDTH 37 0
BBX 31 25 3 0
BITMAP
00003F80
00003F80
00003180
00003180
00003180
00003F80
00003F80
00000000
00000000
00000000
1FFFFF80
70000180
60000180
C0000380
C7FFFF00
C7FFFE00
C6000000
C6000000
C7FFFFF0
C7FFFFFC
C000000C
C0000006
60000006
7FFFFFFE
1FFFFFFE
ENDCHAR
STARTCHAR 00C0
ENCODING 192
SWIDTH 925 0
DWIDTH 37 0
BBX 31 34 3 0
BITMAP
000FC000
000FC000
000CC000
000CC000
000CC000
000CC000
0004C000
0006C000
0001C000
1FFFFFF0
7FFFFFFC
6000000E
C0000006
C0000006
C7FFFFC6
C60000C6
C60000C6
C60000C6
C60000C6
C60000C6
C60000C6
C7FFFFC6
C7FFFFC6
C0000006
C0000006
C0000006
C7FFFFC6
C7FFFFC6
C60000C6
C60000C6
C60000C6
CE000066
FC00007E
F000001E
ENDCHAR
STARTCHAR 00C1
ENCODING 193
SWIDTH 925 0
DWIDTH 37 0
BBX 31 34 3 0
BITMAP
000FC000
000FC000
000CC000
000CC000
000CC000
000CC000
000CC000
000D8000
000F0000
1FFFFFF0
7FFFFFFC
6000000C
C0000006
C0000006
C7FFFFC6
C60000C6
C60000C6
C60000C6
C60000C6
C60000C6
C60000C6
C7FFFFC6
C7FFFFC6
C0000006
C0000006
C0000006
C7FFFFC6
C7FFFFC6
C60000C6
C60000C6
C60000C6
CE000066
FC00007E
F000001E
ENDCHAR
STARTCHAR 00C2
ENCODING 194
SWIDTH 925 0
DWIDTH 37 0
BBX 31 25 3 0
BITMAP
1FFFFFF8
7FFFFFFC
6000000E
C0000006
C0000006
C7FFFFC6
C7FFFFC6
C60000C6
C60000C6
C60000C6
C60000C6
C60000C6
C7FFFFC6
C7FFFFC6
C0000006
C0000006
C0000006
C7FFFFC6
C7FFFFC6
C60000C6
C60000C6
C60000C6
CE000066
FC00007E
F000001E
ENDCHAR
STARTCHAR 00C3
ENCODING 195
SWIDTH 925 0
DWIDTH 37 0
BBX 31 25 3 0
BITMAP
1FFFFFF8
7FFFFFFC
6000000E
C0000006
C0000006
C7FFFFC6
C7FFFFC6
C60000C6
C60000C6
C60000C6
C60000C6
C60000C6
C7FFFFC6
C7FFFFC6
C0000006
C0000006
C0000006
C7FFFFC6
C7FFFFC6
C60000C6
C60000C6
C60000C6
CE000066
FC00007E
F000001E
ENDCHAR
STARTCHAR 00C4
ENCODING 196
SWIDTH 925 0
DWIDTH 37 0
BBX 31 34 3 0
BITMAP
FE0000FE
FE0000FE
C60000C6
C60000C6
C60000C6
FE0000FE
FE0000FE
00000000
00000000
1FFFFFF8
7FFFFFFC
6000000E
C0000006
C0000006
C7FFFFC6
C7FFFFC6
C60000C6
C60000C6
C60000C6
C60000C6
C60000C6
C7FFFFC6
C7FFFFC6
C0000006
C0000006
C0000006
C7FFFFC6
C7FFFFC6
C60000C6
C60000C6
C60000C6
CE000066
FC00007E
F000001E
ENDCHAR
STARTCHAR 00C5
ENCODING 197
SWIDTH 925 0
DWIDTH 37 0
BBX 31 34 3 0
BITMAP
000FC000
000FC000
000CC000
000CC000
000CC000
000FC000
000FC000
00000000
00000000
1FFFFFF8
7FFFFFFC
6000000E
C0000006
C0000006
C7FFFFC6
C7FFFFC6
C60000C6
C60000C6
C60000C6
C60000C6
C60000C6
C7FFFFC6
C7FFFFC6
C0000006
C0000006
C0000006
C7FFFFC6
C7FFFFC6
C60000C6
C60000C6
C60000C6
CE000066
FC00007E
F000001E
ENDCHAR
STARTCHAR 00C6
ENCODING 198
SWIDTH 1075 0
DWIDTH 43 0
BBX 37 25 3 0
BITMAP
1FFFFFFFC0
7FFFFFFFF0
6000000030
C000000018
C000000018
C7FF8FFFF8
C7FF8FFFF8
C6018C0000
C6018C0000
C6018C0000
C6018FFFF8
C601800018
C601800018
C7FF800038
C0000FFFF0
C0000FFFE0
C0000C0000
C7FF8C0000
C7FF8C0000
C6018FFFF8
C601800018
C601800018
CE00C00038
FC00FFFFF0
F0003FFFE0
ENDCHAR
STARTCHAR 00C7
ENCODING 199
SWIDTH 925 0
DWIDTH 37 0
BBX 31 31 3 -6
BITMAP
1FFFFFF0
7FFFFFFC
E000000C
C0000006
C0000006
C7FFFFFE
C7FFFFFE
C6000000
C6000000
C6000000
C6000000
C6000000
C6000000
C6000000
C6000000
C7FFFFFE
C7FFFFFE
C0000006
C0000006
E000000C
7FFF8FFC
3FFF8FF0
00018C00
00018C00
00018C00
001F8C00
003F8C00
00700C00
00601C00
007FF800
007FE000
ENDCHAR
STARTCHAR 00C8
ENCODING 200
SWIDTH 925 0
DWIDTH 37 0
BBX 31 34 3 0
BITMAP
000FC000
000FC000
000CC000
000CC000
000CC000
000CC000
0004C000
0006C000
0001C000
1FFFFFF0
7FFFFFFC
6000000C
C0000006
C0000006
C7FFFFFE
C7FFFFFE
C6000000
C6000000
C6000000
C7FFFFFE
C0000006
C0000006
C000000E
C7FFFFFC
C7FFFFF8
C6000000
C6000000
C6000000
C7FFFFFE
C0000006
C0000006
6000000E
7FFFFFFC
1FFFFFF8
ENDCHAR
STARTCHAR 00C9
ENCODING 201
SWIDTH 925 0
DWIDTH 37 0
BBX 31 34 3 0
BITMAP
000FC000
000FC000
000CC000
000CC000
000CC000
000CC000
000CC000
000D8000
000F8000
1FFE0000
7FFFFFF8
6000000C
C0000006
C0000006
C7FFFFFE
C7FFFFFE
C6000000
C6000000
C6000000
C7FFFFFE
C0000006
C0000006
C000000E
C7FFFFFC
C7FFFFF8
C6000000
C6000000
C6000000
C7FFFFFE
C0000006
C0000006
6000000E
7FFFFFFC
1FFFFFF8
ENDCHAR
STARTCHAR 00CA
ENCODING 202
SWIDTH 925 0
DWIDTH 37 0
BBX 31 25 3 0
BITMAP
1FFFFFF0
7FFFFFFC
6000000C
C0000006
C0000006
C7FFFFFE
C7FFFFFE
C6000000
C6000000
C6000000
C7FFFFFE
C0000006
C0000006
C000000E
C7FFFFFC
C7FFFFF8
C6000000
C6000000
C7FFFFFE
C7FFFFFE
C0000006
C0000006
6000000C
7FFFFFFC
1FFFFFF0
ENDCHAR
STARTCHAR 00CB
ENCODING 203
SWIDTH 925 0
DWIDTH 37 0
BBX 31 34 3 0
BITMAP
FE0000FE
FE0000FE
C60000C6
C60000C6
C60000C6
FE0000FE
FE0000FE
00000000
00000000
1FFFFFF0
7FFFFFFC
6000000C
C0000006
C0000006
C7FFFFFE
C7FFFFFE
C6000000
C6000000
C6000000
C7FFFFFE
C0000006
C0000006
C000000E
C7FFFFFC
C7FFFFF8
C6000000
C6000000
C6000000
C7FFFFFE
C0000006
C0000006
6000000E
7FFFFFFC
1FFFFFF8
ENDCHAR
STARTCHAR 00CC
ENCODING 204
SWIDTH 300 0
DWIDTH 12 0
BBX 6 34 3 0
BITMAP
FC
FC
CC
CC
CC
CC
6C
7C
3C
F0
F8
DC
CC
CC
CC
CC
CC
CC
CC
CC
CC
CC
CC
CC
CC
CC
CC
CC
CC
CC
CC
6C
7C
1C
ENDCHAR
STARTCHAR 00CD
ENCODING 205
SWIDTH 300 0
DWIDTH 12 0
BBX 6 34 3 0
BITMAP
FC
FC
CC
CC
CC
CC
DC
F8
F0
1C
7C
6C
CC
CC
CC
CC
CC
CC
CC
CC
CC
CC
CC
CC
CC
CC
CC
CC
CC
CC
CC
DC
F8
F0
ENDCHAR
STARTCHAR 00CE
ENCODING 206
SWIDTH 300 0
DWIDTH 12 0
BBX 6 25 3 0
BITMAP
F0
F8
DC
CC
CC
CC
CC
CC
CC
CC
CC
CC
CC
CC
CC
CC
CC
CC
CC
CC
CC
CC
6C
7C
1C
ENDCHAR
STARTCHAR 00CF
ENCODING 207
SWIDTH 625 0
DWIDTH 25 0
BBX 18 34 3 0
BITMAP
FE0FC0
FE0FC0
C60CC0
C60CC0
C60CC0
FE0FC0
FE0FC0
000000
000000
01C000
01E000
01B000
01B000
01B000
01B000
01B000
01B000
01B000
01B000
01B000
01B000
01B000
01B000
01B000
01B000
01B000
01B000
01B000
01B000
01B000
01B000
01F000
00F000
007000
ENDCHAR
STARTCHAR 00D0
ENCODING 208
SWIDTH 925 0
DWIDTH 37 0
BBX 31 31 3 0
BITMAP
0000001E
0000007E
00000066
000000C6
000000C6
000000C6
1FFFFFC6
7FFFFFC6
60000006
C0000006
C0000006
C7FFFFC6
C7FFFFC6
C60000C6
C60000C6
C60000C6
C60000C6
C60000C6
C60000C6
C60000C6
C60000C6
C60000C6
C60000C6
C60000C6
C7FFFFC6
C7FFFFC6
C0000006
C0000006
6000000E
7FFFFFFC
1FFFFFF8
ENDCHAR
STARTCHAR 00D1
ENCODING 209
SWIDTH 925 0
DWIDTH 37 0
BBX 31 25 3 0
BITMAP
1FFFFFF8
7FFFFFFC
6000000E
C0000006
C0000006
C7FFFFC6
C7FFFFC6
C60000C6
C60000C6
C60000C6
C60000C6
C60000C6
C60000C6
C60000C6
C60000C6
C60000C6
C60000C6
C60000C6
C60000C6
C60000C6
C60000C6
C60000C6
CE000066
FC00007E
F000001E
ENDCHAR
STARTCHAR 00D2
ENCODING 210
SWIDTH 925 0
DWIDTH 37 0
BBX 31 34 3 0
BITMAP
000FC000
000FC000
000CC000
000CC000
000CC000
000CC000
0004C000
0006C000
0001C000
1FFFFFF0
7FFFFFFC
6000000E
C0000006
C0000006
C7FFFFC6
C7FFFFC6
C60000C6
C60000C6
C60000C6
C60000C6
C60000C6
C60000C6
C60000C6
C60000C6
C60000C6
C60000C6
C60000C6
C7FFFFC6
C7FFFFC6
C0000006
C0000006
6000000E
7FFFFFFC
1FFFFFF8
ENDCHAR
STARTCHAR 00D3
ENCODING 211
SWIDTH 925 0
DWIDTH 37 0
BBX 31 34 3 0
BITMAP
000FC000
000FC000
000CC000
000CC000
000CC000
000CC000
000CC000
000D8000
000F0000
1FFFFFF0
7FFFFFFC
6000000C
C0000006
C0000006
C7FFFFC6
C7FFFFC6
C60000C6
C60000C6
C60000C6
C60000C6
C60000C6
C60000C6
C60000C6
C60000C6
C60000C6
C60000C6
C60000C6
C7FFFFC6
C7FFFFC6
C0000006
C0000006
6000000E
7FFFFFFC
1FFFFFF8
ENDCHAR
STARTCHAR 00D4
ENCODING 212
SWIDTH 925 0
DWIDTH 37 0
BBX 31 25 3 0
BITMAP
1FFFFFF8
7FFFFFFC
6000000E
C0000006
C0000006
C7FFFFC6
C7FFFFC6
C60000C6
C60000C6
C60000C6
C60000C6
C60000C6
C60000C6
C60000C6
C60000C6
C60000C6
C60000C6
C60000C6
C7FFFFC6
C7FFFFC6
C0000006
C0000006
6000000E
7FFFFFFC
1FFFFFF8
ENDCHAR
STARTCHAR 00D5
ENCODING 213
SWIDTH 925 0
DWIDTH 37 0
BBX 31 25 3 0
BITMAP
1FFFFFF8
7FFFFFFC
6000000E
C0000006
C0000006
C7FFFFC6
C7FFFFC6
C60000C6
C60000C6
C60000C6
C60000C6
C60000C6
C60000C6
C60000C6
C60000C6
C60000C6
C60000C6
C60000C6
C7FFFFC6
C7FFFFC6
C0000006
C0000006
6000000E
7FFFFFFC
1FFFFFF8
ENDCHAR
STARTCHAR 00D6
ENCODING 214
SWIDTH 925 0
DWIDTH 37 0
BBX 31 34 3 0
BITMAP
FE0000FE
FE0000FE
C60000C6
C60000C6
C60000C6
FE0000FE
FE0000FE
00000000
00000000
1FFFFFF8
7FFFFFFC
6000000E
C0000006
C0000006
C7FFFFC6
C7FFFFC6
C60000C6
C60000C6
C60000C6
C60000C6
C60000C6
C60000C6
C60000C6
C60000C6
C60000C6
C60000C6
C60000C6
C7FFFFC6
C7FFFFC6
C0000006
C0000006
6000000E
7FFFFFFC
1FFFFFF8
ENDCHAR
STARTCHAR 00D7
ENCODING 215
SWIDTH 550 0
DWIDTH 22 0
BBX 0 0 0 0
BITMAP
ENDCHAR
STARTCHAR 00D8
ENCODING 216
SWIDTH 925 0
DWIDTH 37 0
BBX 31 25 3 0
BITMAP
1FFFFFF8
7FFFFFFC
6000000E
C0000006
C0000006
C7FFFFC6
C7FFFFC6
C60000C6
C60000C6
C60000C6
C60000C6
C60000C6
C60000C6
C60000C6
C60000C6
C60000C6
C60000C6
C60000C6
C7FFFFC6
C7FFFFC6
C0000006
C0000006
6000000E
7FFFFFFC
1FFFFFF8
ENDCHAR
STARTCHAR 00D9
ENCODING 217
SWIDTH 925 0
DWIDTH 37 0
BBX 31 34 3 0
BITMAP
000FC000
000FC000
000CC000
000CC000
000CC000
000CC000
0006C000
0007C000
0003C000
F000001E
FC00007E
CE000066
C60000C6
C60000C6
C60000C6
C60000C6
C60000C6
C60000C6
C60000C6
C60000C6
C60000C6
C60000C6
C60000C6
C60000C6
C60000C6
C60000C6
C60000C6
C7FFFFC6
C7FFFFC6
C0000006
C0000006
6000000E
7FFFFFFC
1FFFFFF8
ENDCHAR
STARTCHAR 00DA
ENCODING 218
SWIDTH 925 0
DWIDTH 37 0
BBX 31 34 3 0
BITMAP
000FC000
000FC000
000CC000
000CC000
000CC000
000CC000
000DC000
000F8000
000F0000
F000001E
FC00007E
CE000066
C60000C6
C60000C6
C60000C6
C60000C6
C60000C6
C60000C6
C60000C6
C60000C6
C60000C6
C60000C6
C60000C6
C60000C6
C60000C6
C60000C6
C60000C6
C7FFFFC6
C7FFFFC6
C0000006
C0000006
6000000E
7FFFFFFC
1FFFFFF8
ENDCHAR
STARTCHAR 00DB
ENCODING 219
SWIDTH 925 0
DWIDTH 37 0
BBX 31 25 3 0
BITMAP
F000001E
FC00007E
CE000066
C60000C6
C60000C6
C60000C6
C60000C6
C60000C6
C60000C6
C60000C6
C60000C6
C60000C6
C60000C6
C60000C6
C60000C6
C60000C6
C60000C6
C60000C6
C7FFFFC6
C7FFFFC6
C0000006
C0000006
6000000E
7FFFFFFC
1FFFFFF8
ENDCHAR
STARTCHAR 00DC
ENCODING 220
SWIDTH 925 0
DWIDTH 37 0
BBX 31 34 3 0
BITMAP
FE0000FE
FE0000FE
C60000C6
C60000C6
C60000C6
FE0000FE
FE0000FE
00000000
00000000
F000001E
FC00007E
CE000066
C60000C6
C60000C6
C60000C6
C60000C6
C60000C6
C60000C6
C60000C6
C60000C6
C60000C6
C60000C6
C60000C6
C60000C6
C60000C6
C60000C6
C60000C6
C7FFFFC6
C7FFFFC6
C0000006
C0000006
6000000E
7FFFFFFC
1FFFFFF8
ENDCHAR
STARTCHAR 00DD
ENCODING 221
SWIDTH 925 0
DWIDTH 37 0
BBX 31 40 3 -6
BITMAP
000FC000
000FC000
000CC000
000CC000
000CC000
000CC000
000DC000
000F8000
000F0000
F000001E
FC00007E
CE000066
C60000C6
C60000C6
C60000C6
C60000C6
C60000C6
C60000C6
C60000C6
C60000C6
C60000C6
C60000C6
C60000C6
C60000C6
C60000C6
C60000C6
C60000C6
C7FFFFC6
C7FFFFC6
C0000006
C0000006
60000006
7FFFFFC6
1FFFFFC6
000000C6
000000C6
000000C6
00000066
0000007E
0000001E
ENDCHAR
STARTCHAR 00DE
ENCODING 222
SWIDTH 550 0
DWIDTH 22 0
BBX 0 0 0 0
BITMAP
ENDCHAR
STARTCHAR 00DF
ENCODING 223
SWIDTH 550 0
DWIDTH 22 0
BBX 0 0 0 0
BITMAP
ENDCHAR
STARTCHAR 00E0
ENCODING 224
SWIDTH 925 0
DWIDTH 37 0
BBX 31 34 3 0
BITMAP
000FC000
000FC000
000CC000
000CC000
000CC000
000CC000
0004C000
0006C000
0001C000
1FFFFFFE
7FFFFFFE
60000006
C0000006
C0000006
C7FFFFC6
C7FFFFC6
C60000C6
C60000C6
C60000C6
C60000C6
C60000C6
C60000C6
C60000C6
C60000C6
C60000C6
C60000C6
C60000C6
C7FFFFC6
C7FFFFC6
C0000006
C0000006
60000006
7FFFFFFE
1FFFFFFE
ENDCHAR
STARTCHAR 00E1
ENCODING 225
SWIDTH 925 0
DWIDTH 37 0
BBX 31 34 3 0
BITMAP
000FC000
000FC000
000CC000
000CC000
000CC000
000CC000
000CC000
000D8000
000F0000
1FFFFFFE
7FFFFFFE
60000006
C0000006
C0000006
C7FFFFC6
C7FFFFC6
C60000C6
C60000C6
C60000C6
C60000C6
C60000C6
C60000C6
C60000C6
C60000C6
C60000C6
C60000C6
C60000C6
C7FFFFC6
C7FFFFC6
C0000006
C0000006
60000006
7FFFFFFE
1FFFFFFE
ENDCHAR
STARTCHAR 00E2
ENCODING 226
SWIDTH 925 0
DWIDTH 37 0
BBX 31 25 3 0
BITMAP
1FFFFFFE
7FFFFFFE
60000006
C0000006
C0000006
C7FFFFC6
C7FFFFC6
C60000C6
C60000C6
C60000C6
C60000C6
C60000C6
C60000C6
C60000C6
C60000C6
C60000C6
C60000C6
C60000C6
C7FFFFC6
C7FFFFC6
C0000006
C0000006
60000006
7FFFFFFE
1FFFFFFE
ENDCHAR
STARTCHAR 00E3
ENCODING 227
SWIDTH 925 0
DWIDTH 37 0
BBX 31 25 3 0
BITMAP
1FFFFFFE
7FFFFFFE
60000006
C0000006
C0000006
C7FFFFC6
C7FFFFC6
C60000C6
C60000C6
C60000C6
C60000C6
C60000C6
C60000C6
C60000C6
C60000C6
C60000C6
C60000C6
C60000C6
C7FFFFC6
C7FFFFC6
C0000006
C0000006
60000006
7FFFFFFE
1FFFFFFE
ENDCHAR
STARTCHAR 00E4
ENCODING 228
SWIDTH 925 0
DWIDTH 37 0
BBX 31 34 3 0
BITMAP
FE0000FE
FE0000FE
C60000C6
C60000C6
C60000C6
FE0000FE
FE0000FE
00000000
00000000
1FFFFFFE
7FFFFFFE
60000006
C0000006
C0000006
C7FFFFC6
C7FFFFC6
C60000C6
C60000C6
C60000C6
C60000C6
C60000C6
C60000C6
C60000C6
C60000C6
C60000C6
C60000C6
C60000C6
C7FFFFC6
C7FFFFC6
C0000006
C0000006
60000006
7FFFFFFE
1FFFFFFE
ENDCHAR
STARTCHAR 00E5
ENCODING 229
SWIDTH 925 0
DWIDTH 37 0
BBX 31 34 3 0
BITMAP
000FC000
000FC000
000CC000
000CC000
000CC000
000FC000
000FC000
00000000
00000000
1FFFFFFE
7FFFFFFE
60000006
C0000006
C0000006
C7FFFFC6
C7FFFFC6
C60000C6
C60000C6
C60000C6
C60000C6
C60000C6
C60000C6
C60000C6
C60000C6
C60000C6
C60000C6
C60000C6
C7FFFFC6
C7FFFFC6
C0000006
C0000006
60000006
7FFFFFFE
1FFFFFFE
ENDCHAR
STARTCHAR 00E6
ENCODING 230
SWIDTH 1075 0
DWIDTH 43 0
BBX 37 25 3 0
BITMAP
1FFFFFFFC0
7FFFFFFFF0
6000000038
C000000018
C000000018
C7FF8FFF18
C7FF8FFF18
C6018C0318
C6018C0318
C6018C0318
C6018FFF18
C601800018
C601800018
C601800018
C6018FFFF8
C6018FFFF8
C6018C0000
C6018C0000
C7FF8FFFF8
C7FF8FFFF8
C000000018
C000000018
6000000030
7FFFFFFFF0
1FFFFFFFC0
ENDCHAR
STARTCHAR 00E7
ENCODING 231
SWIDTH 925 0
DWIDTH 37 0
BBX 31 31 3 -6
BITMAP
1FFFFFF0
7FFFFFFC
E000000C
C0000006
C0000006
C7FFFFFE
C7FFFFFE
C6000000
C6000000
C6000000
C6000000
C6000000
C6000000
C6000000
C6000000
C7FFFFFE
C7FFFFFE
C0000006
C0000006
E000000C
7FFF8FFC
3FFF8FF0
00018C00
00018C00
00018C00
001F8C00
003F8C00
00700C00
00601C00
007FF800
007FE000
ENDCHAR
STARTCHAR 00E8
ENCODING 232
SWIDTH 925 0
DWIDTH 37 0
BBX 31 34 3 0
BITMAP
000FC000
000FC000
000CC000
000CC000
000CC000
000CC000
0004C000
0006C000
0001C000
1FFFFFF0
7FFFFFFC
6000000C
C0000006
C0000006
C7FFFFC6
C7FFFFC6
C60000C6
C60000C6
C60000C6
C7FFFFC6
C0000006
C0000006
C0000006
C7FFFFFE
C7FFFFFE
C6000000
C6000000
C7FFFFFE
C7FFFFFE
C0000006
C0000006
6000000C
7FFFFFFC
1FFFFFF0
ENDCHAR
STARTCHAR 00E9
ENCODING 233
SWIDTH 925 0
DWIDTH 37 0
BBX 31 34 3 0
BITMAP
000FC000
000FC000
000CC000
000CC000
000CC000
000CC000
000CC000
000D8000
000F0000
1FFFFFE0
7FFFFFF8
6000000C
C0000006
C0000006
C7FFFFC6
C7FFFFC6
C60000C6
C60000C6
C60000C6
C7FFFFC6
C0000006
C0000006
C0000006
C7FFFFFE
C7FFFFFE
C6000000
C6000000
C7FFFFFE
C7FFFFFE
C0000006
C0000006
6000000C
7FFFFFFC
1FFFFFF0
ENDCHAR
STARTCHAR 00EA
ENCODING 234
SWIDTH 925 0
DWIDTH 37 0
BBX 31 25 3 0
BITMAP
1FFFFFF0
7FFFFFFC
6000000E
C0000006
C0000006
C7FFFFC6
C7FFFFC6
C60000C6
C60000C6
C60000C6
C7FFFFC6
C0000006
C0000006
C0000006
C7FFFFFE
C7FFFFFE
C6000000
C6000000
C7FFFFFE
C7FFFFFE
C0000006
C0000006
6000000C
7FFFFFFC
1FFFFFF0
ENDCHAR
STARTCHAR 00EB
ENCODING 235
SWIDTH 925 0
DWIDTH 37 0
BBX 31 34 3 0
BITMAP
FE0000FE
FE0000FE
C60000C6
C60000C6
C60000C6
FE0000FE
FE0000FE
00000000
00000000
1FFFFFF0
7FFFFFFC
6000000E
C0000006
C0000006
C7FFFFC6
C7FFFFC6
C60000C6
C60000C6
C60000C6
C7FFFFC6
C0000006
C0000006
C0000006
C7FFFFFE
C7FFFFFE
C6000000
C6000000
C7FFFFFE
C7FFFFFE
C0000006
C0000006
6000000C
7FFFFFFC
1FFFFFF0
ENDCHAR
STARTCHAR 00EC
ENCODING 236
SWIDTH 300 0
DWIDTH 12 0
BBX 6 34 3 0
BITMAP
FC
FC
CC
CC
CC
CC
6C
7C
3C
F0
F8
DC
CC
CC
CC
CC
CC
CC
CC
CC
CC
CC
CC
CC
CC
CC
CC
CC
CC
CC
CC
6C
7C
1C
ENDCHAR
STARTCHAR 00ED
ENCODING 237
SWIDTH 300 0
DWIDTH 12 0
BBX 6 34 3 0
BITMAP
FC
FC
CC
CC
CC
CC
DC
F8
F0
1C
7C
6C
CC
CC
CC
CC
CC
CC
CC
CC
CC
CC
CC
CC
CC
CC
CC
CC
CC
CC
CC
DC
F8
F0
ENDCHAR
STARTCHAR 00EE
ENCODING 238
SWIDTH 300 0
DWIDTH 12 0
BBX 6 25 3 0
BITMAP
F0
F8
DC
CC
CC
CC
CC
CC
CC
CC
CC
CC
CC
CC
CC
CC
CC
CC
CC
CC
CC
CC
6C
7C
1C
ENDCHAR
STARTCHAR 00EF
ENCODING 239
SWIDTH 625 0
DWIDTH 25 0
BBX 18 34 3 0
BITMAP
FE0FC0
FE0FC0
C60CC0
C60CC0
C60CC0
FE0FC0
FE0FC0
000000
000000
01C000
01E000
01B000
01B000
01B000
01B000
01B000
01B000
01B000
01B000
01B000
01B000
01B000
01B000
01B000
01B000
01B000
01B000
01B000
01B000
01B000
01B000
01F000
00F000
007000
ENDCHAR
STARTCHAR 00F0
ENCODING 240
SWIDTH 550 0
DWIDTH 22 0
BBX 0 0 0 0
BITMAP
ENDCHAR
STARTCHAR 00F1
ENCODING 241
SWIDTH 925 0
DWIDTH 37 0
BBX 31 25 3 0
BITMAP
1FFFFFF8
7FFFFFFC
6000000E
C0000006
C0000006
C7FFFFC6
C7FFFFC6
C60000C6
C60000C6
C60000C6
C60000C6
C60000C6
C60000C6
C60000C6
C60000C6
C60000C6
C60000C6
C60000C6
C60000C6
C60000C6
C60000C6
C60000C6
CE000066
FC00007E
F000001E
ENDCHAR
STARTCHAR 00F2
ENCODING 242
SWIDTH 925 0
DWIDTH 37 0
BBX 31 34 3 0
BITMAP
000FC000
000FC000
000CC000
000CC000
000CC000
000CC000
0004C000
0006C000
0001C000
1FFFFFF0
7FFFFFFC
6000000E
C0000006
C0000006
C7FFFFC6
C7FFFFC6
C60000C6
C60000C6
C60000C6
C60000C6
C60000C6
C60000C6
C60000C6
C60000C6
C60000C6
C60000C6
C60000C6
C7FFFFC6
C7FFFFC6
C0000006
C0000006
6000000E
7FFFFFFC
1FFFFFF8
ENDCHAR
STARTCHAR 00F3
ENCODING 243
SWIDTH 925 0
DWIDTH 37 0
BBX 31 34 3 0
BITMAP
000FC000
000FC000
000CC000
000CC000
000CC000
000CC000
000CC000
000D8000
000F0000
1FFFFFF0
7FFFFFFC
6000000C
C0000006
C0000006
C7FFFFC6
C7FFFFC6
C60000C6
C60000C6
C60000C6
C60000C6
C60000C6
C60000C6
C60000C6
C60000C6
C60000C6
C60000C6
C60000C6
C7FFFFC6
C7FFFFC6
C0000006
C0000006
6000000E
7FFFFFFC
1FFFFFF8
ENDCHAR
STARTCHAR 00F4
ENCODING 244
SWIDTH 925 0
DWIDTH 37 0
BBX 31 25 3 0
BITMAP
1FFFFFF8
7FFFFFFC
6000000E
C0000006
C0000006
C7FFFFC6
C7FFFFC6
C60000C6
C60000C6
C60000C6
C60000C6
C60000C6
C60000C6
C60000C6
C60000C6
C60000C6
C60000C6
C60000C6
C7FFFFC6
C7FFFFC6
C0000006
C0000006
6000000E
7FFFFFFC
1FFFFFF8
ENDCHAR
STARTCHAR 00F5
ENCODING 245
SWIDTH 925 0
DWIDTH 37 0
BBX 31 25 3 0
BITMAP
1FFFFFF8
7FFFFFFC
6000000E
C0000006
C0000006
C7FFFFC6
C7FFFFC6
C60000C6
C60000C6
C60000C6
C60000C6
C60000C6
C60000C6
C60000C6
C60000C6
C60000C6
C60000C6
C60000C6
C7FFFFC6
C7FFFFC6
C0000006
C0000006
6000000E
7FFFFFFC
1FFFFFF8
ENDCHAR
STARTCHAR 00F6
ENCODING 246
SWIDTH 925 0
DWIDTH 37 0
BBX 31 34 3 0
BITMAP
FE0000FE
FE0000FE
C60000C6
C60000C6
C60000C6
FE0000FE
FE0000FE
00000000
00000000
1FFFFFF8
7FFFFFFC
6000000E
C0000006
C0000006
C7FFFFC6
C7FFFFC6
C60000C6
C60000C6
C60000C6
C60000C6
C60000C6
C60000C6
C60000C6
C60000C6
C60000C6
C60000C6
C60000C6
C7FFFFC6
C7FFFFC6
C0000006
C0000006
6000000E
7FFFFFFC
1FFFFFF8
ENDCHAR
STARTCHAR 00F7
ENCODING 247
SWIDTH 550 0
DWIDTH 22 0
BBX 0 0 0 0
BITMAP
ENDCHAR
STARTCHAR 00F8
ENCODING 248
SWIDTH 925 0
DWIDTH 37 0
BBX 31 25 3 0
BITMAP
1FFFFFF8
7FFFFFFC
6000000E
C0000006
C0000006
C7FFFFC6
C7FFFFC6
C60000C6
C60000C6
C60000C6
C60000C6
C60000C6
C60000C6
C60000C6
C60000C6
C60000C6
C60000C6
C60000C6
C7FFFFC6
C7FFFFC6
C0000006
C0000006
6000000E
7FFFFFFC
1FFFFFF8
ENDCHAR
STARTCHAR 00F9
ENCODING 249
SWIDTH 925 0
DWIDTH 37 0
BBX 31 34 3 0
BITMAP
000FC000
000FC000
000CC000
000CC000
000CC000
000CC000
0006C000
0007C000
0003C000
F000001E
FC00007E
CE000066
C60000C6
C60000C6
C60000C6
C60000C6
C60000C6
C60000C6
C60000C6
C60000C6
C60000C6
C60000C6
C60000C6
C60000C6
C60000C6
C60000C6
C60000C6
C7FFFFC6
C7FFFFC6
C0000006
C0000006
6000000E
7FFFFFFC
1FFFFFF8
ENDCHAR
STARTCHAR 00FA
ENCODING 250
SWIDTH 925 0
DWIDTH 37 0
BBX 31 34 3 0
BITMAP
000FC000
000FC000
000CC000
000CC000
000CC000
000CC000
000DC000
000F8000
000F0000
F000001E
FC00007E
CE000066
C60000C6
C60000C6
C60000C6
C60000C6
C60000C6
C60000C6
C60000C6
C60000C6
C60000C6
C60000C6
C60000C6
C60000C6
C60000C6
C60000C6
C60000C6
C7FFFFC6
C7FFFFC6
C0000006
C0000006
6000000E
7FFFFFFC
1FFFFFF8
ENDCHAR
STARTCHAR 00FB
ENCODING 251
SWIDTH 925 0
DWIDTH 37 0
BBX 31 25 3 0
BITMAP
F000001E
FC00007E
CE000066
C60000C6
C60000C6
C60000C6
C60000C6
C60000C6
C60000C6
C60000C6
C60000C6
C60000C6
C60000C6
C60000C6
C60000C6
C60000C6
C60000C6
C60000C6
C7FFFFC6
C7FFFFC6
C0000006
C0000006
6000000E
7FFFFFFC
1FFFFFF8
ENDCHAR
STARTCHAR 00FC
ENCODING 252
SWIDTH 925 0
DWIDTH 37 0
BBX 31 34 3 0
BITMAP
FE0000FE
FE0000FE
C60000C6
C60000C6
C60000C6
FE0000FE
FE0000FE
00000000
00000000
F000001E
FC00007E
CE000066
C60000C6
C60000C6
C60000C6
C60000C6
C60000C6
C60000C6
C60000C6
C60000C6
C60000C6
C60000C6
C60000C6
C60000C6
C60000C6
C60000C6
C60000C6
C7FFFFC6
C7FFFFC6
C0000006
C0000006
6000000E
7FFFFFFC
1FFFFFF8
ENDCHAR
STARTCHAR 00FD
ENCODING 253
SWIDTH 925 0
DWIDTH 37 0
BBX 31 40 3 -6
BITMAP
000FC000
000FC000
000CC000
000CC000
000CC000
000CC000
000DC000
000F8000
000F0000
F000001E
FC00007E
CE000066
C60000C6
C60000C6
C60000C6
C60000C6
C60000C6
C60000C6
C60000C6
C60000C6
C60000C6
C60000C6
C60000C6
C60000C6
C60000C6
C60000C6
C60000C6
C7FFFFC6
C7FFFFC6
C0000006
C0000006
60000006
7FFFFFC6
1FFFFFC6
000000C6
000000C6
000000C6
00000066
0000007E
0000001E
ENDCHAR
STARTCHAR 00FE
ENCODING 254
SWIDTH 550 0
DWIDTH 22 0
BBX 0 0 0 0
BITMAP
ENDCHAR
STARTCHAR 00FF
ENCODING 255
SWIDTH 925 0
DWIDTH 37 0
BBX 31 40 3 -6
BITMAP
FE0000FE
FE0000FE
C60000C6
C60000C6
C60000C6
FE0000FE
FE0000FE
00000000
00000000
F000001E
FC00007E
CE000066
C60000C6
C60000C6
C60000C6
C60000C6
C60000C6
C60000C6
C60000C6
C60000C6
C60000C6
C60000C6
C60000C6
C60000C6
C60000C6
C60000C6
C60000C6
C7FFFFC6
C7FFFFC6
C0000006
C0000006
60000006
7FFFFFC6
1FFFFFC6
000000C6
000000C6
000000C6
00000066
0000007E
0000001E
ENDCHAR
STARTCHAR 02C9
ENCODING 713
SWIDTH 550 0
DWIDTH 22 0
BBX 0 0 0 0
BITMAP
ENDCHAR
STARTCHAR 03BC
ENCODING 956
SWIDTH 550 0
DWIDTH 22 0
BBX 0 0 0 0
BITMAP
ENDCHAR
STARTCHAR 2010
ENCODING 8208
SWIDTH 775 0
DWIDTH 31 0
BBX 25 6 3 9
BITMAP
1FFFFF80
7FFFFF80
60000180
C0000380
FFFFFF00
FFFFFE00
ENDCHAR
STARTCHAR 2219
ENCODING 8729
SWIDTH 550 0
DWIDTH 22 0
BBX 0 0 0 0
BITMAP
ENDCHAR
ENDFONT
